<?xml version="1.0" encoding="utf-8"?>
<!-- Generator: Adobe Illustrator 24.1.2, SVG Export Plug-In . SVG Version: 6.00 Build 0)  -->
<svg version="1.1" id="Layer_1" xmlns="http://www.w3.org/2000/svg" xmlns:xlink="http://www.w3.org/1999/xlink" x="0px" y="0px"
	 viewBox="0 0 800 800" style="enable-background:new 0 0 800 800;" xml:space="preserve">
<style type="text/css">
	.st0{fill:#FFFFFF;stroke:#FF7B47;stroke-width:64;stroke-miterlimit:333.3333;}
	.st1{fill:#FF7B47;stroke:#FF7B47;stroke-width:64;stroke-miterlimit:333.3333;}
	.st2{fill:#FF7B47;}
</style>
<path class="st0" d="M251,176.3h298c41.2,0,74.7,33.4,74.7,74.7v298c0,41.2-33.4,74.7-74.7,74.7H251c-41.2,0-74.7-33.4-74.7-74.7
	V251C176.3,209.8,209.8,176.3,251,176.3z"/>
<line class="st0" x1="240.3" y1="16.7" x2="240.3" y2="176.3"/>
<line class="st0" x1="400" y1="16.7" x2="400" y2="176.3"/>
<line class="st0" x1="559.7" y1="16.7" x2="559.7" y2="176.3"/>
<line class="st0" x1="240.3" y1="623.7" x2="240.3" y2="783.3"/>
<line class="st0" x1="400" y1="623.7" x2="400" y2="783.3"/>
<line class="st0" x1="559.7" y1="623.7" x2="559.7" y2="783.3"/>
<line class="st0" x1="16.7" y1="559.7" x2="176.3" y2="559.7"/>
<line class="st0" x1="16.7" y1="400" x2="176.3" y2="400"/>
<line class="st0" x1="16.7" y1="240.3" x2="176.3" y2="240.3"/>
<line class="st0" x1="623.7" y1="559.7" x2="783.3" y2="559.7"/>
<line class="st1" x1="623.7" y1="400" x2="783.3" y2="400"/>
<line class="st0" x1="623.7" y1="240.3" x2="783.3" y2="240.3"/>
<ellipse transform="matrix(0.1602 -0.9871 0.9871 0.1602 174.327 749.5635)" class="st2" cx="527.7" cy="272.3" rx="32" ry="32"/>
</svg>
