<?xml version="1.0" encoding="iso-8859-1"?>
<!-- Generator: Adobe Illustrator 19.0.0, SVG Export Plug-In . SVG Version: 6.00 Build 0)  -->
<svg xmlns="http://www.w3.org/2000/svg" xmlns:xlink="http://www.w3.org/1999/xlink" version="1.1" id="Layer_1" x="0px" y="0px" viewBox="0 0 454.478 454.478" style="enable-background:new 0 0 454.478 454.478;" xml:space="preserve" width="512" height="512">
<g>
	<path style="fill:#07A521;" d="M397.522,327.768c-26.26,0-47.2-21.35-47.2-47.13c0-1.23,0.04-2.47,0.14-3.72l5.06-65.29   c1.7-21.93,20-38.86,42-38.86c21.99,0,40.29,16.93,41.99,38.86l5.06,65.29C446.702,304.338,425.022,327.768,397.522,327.768z"/>
	<rect x="7.5" y="402.399" style="fill:#0FBC30;" width="439.478" height="25.499"/>
	<path style="fill:#3B9DFF;" d="M378.282,122.488c2.05,2.06,3.32,4.9,3.32,8.03c0,6.28-5.08,11.36-11.36,11.36h-39.16   c-3.14,0-5.98-1.27-8.03-3.33c-2.06-2.05-3.33-4.89-3.33-8.03c0-6.27,5.09-11.36,11.36-11.36h-42.85c-3.13,0-5.97-1.27-8.03-3.33   c-2.06-2.05-3.33-4.89-3.33-8.03c0-6.27,5.09-11.36,11.36-11.36h65.57c3.14,0,5.98,1.27,8.03,3.33c2.06,2.06,3.33,4.9,3.33,8.03   c0,6.28-5.09,11.36-11.36,11.36h16.44C373.382,119.158,376.222,120.428,378.282,122.488z"/>
	<polygon style="fill:#CCCCCC;" points="317.802,364.428 313.792,397.438 140.682,397.438 136.672,364.428 227.242,364.428  "/>
	<path style="fill:#CCCCCC;" d="M167.942,327.428h118.59c-10.74,21.91-33.25,37-59.29,37   C201.192,364.428,178.682,349.338,167.942,327.428z"/>
	<path style="fill:#CCCCCC;" d="M190.382,280.428h73.72c-6.68,13.62-20.67,23-36.86,23S197.052,294.048,190.382,280.428z"/>
	<path style="fill:#FFD039;" d="M139.492,28.548c27.76,0,50.25,22.49,50.25,50.24s-22.49,50.25-50.25,50.25   c-27.75,0-50.24-22.5-50.24-50.25S111.742,28.548,139.492,28.548z"/>
	<path style="fill:#07A521;" d="M56.962,327.768c-27.51,0-49.19-23.43-47.06-50.85l5.07-65.29c1.7-21.93,19.99-38.86,41.99-38.86   s40.29,16.93,41.99,38.86l5.06,65.29c0.1,1.25,0.14,2.49,0.14,3.72C104.152,306.418,83.212,327.768,56.962,327.768z"/>
	<path style="fill:#0FBC30;" d="M104.012,276.918l-5.06-65.29c-1.7-21.93-19.99-38.86-41.99-38.86   c-19.216,0-35.6,12.918-40.572,30.801c3.61-1.006,7.406-1.552,11.323-1.552c22,0,40.29,16.93,41.99,38.86l5.06,65.29   c0.1,1.25,0.14,2.49,0.14,3.72c0,5.346-0.913,10.497-2.574,15.311c18.598-6.403,31.823-24.077,31.823-44.56   C104.152,279.408,104.112,278.168,104.012,276.918z"/>
	<path style="fill:#0FBC30;" d="M350.462,276.918l5.06-65.29c1.7-21.93,19.99-38.86,41.99-38.86c19.216,0,35.6,12.918,40.572,30.801   c-3.61-1.006-7.406-1.552-11.323-1.552c-22,0-40.29,16.93-41.99,38.86l-5.06,65.29c-0.1,1.25-0.14,2.49-0.14,3.72   c0,5.346,0.913,10.497,2.574,15.311c-18.598-6.403-31.823-24.077-31.823-44.56C350.322,279.408,350.362,278.168,350.462,276.918z"/>
	<g>
		<path style="fill:#333333;" d="M7.5,404.936h439.478c4.142,0,7.5-3.358,7.5-7.5s-3.358-7.5-7.5-7.5h-41.96v-55.208    c12.429-1.733,24.038-7.709,32.645-17.008c10.319-11.151,15.564-26.233,14.389-41.381l-5.064-65.29    c-1.991-25.673-23.721-45.783-49.47-45.783s-47.479,20.11-49.47,45.782l-5.064,65.291c-1.175,15.147,4.07,30.23,14.389,41.381    c8.606,9.299,20.215,15.275,32.645,17.008v55.208h-67.759l2.992-24.6c0.259-2.131-0.408-4.271-1.831-5.878    c-1.423-1.607-3.467-2.527-5.614-2.527h-45.955c8.877-6.788,16.254-15.663,21.417-26.2c1.139-2.325,0.999-5.072-0.371-7.269    c-1.37-2.197-3.775-3.532-6.364-3.532h-51.793v-9.576c15.559-2.387,28.991-12.131,36.093-26.623    c1.139-2.325,0.999-5.072-0.371-7.269c-1.37-2.196-3.775-3.531-6.364-3.531h-73.716c-2.589,0-4.994,1.335-6.364,3.531    c-1.37,2.197-1.51,4.944-0.371,7.269c7.101,14.492,20.534,24.236,36.093,26.623v9.576h-51.794c-2.589,0-4.994,1.335-6.364,3.532    c-1.37,2.196-1.51,4.944-0.371,7.269c5.163,10.537,12.54,19.412,21.417,26.2h-45.955c-2.147,0-4.191,0.92-5.614,2.527    c-1.423,1.607-2.09,3.747-1.831,5.878l2.992,24.6H64.46v-55.208c12.43-1.733,24.039-7.709,32.645-17.009    c10.319-11.151,15.564-26.233,14.389-41.381l-5.064-65.29c-1.991-25.673-23.72-45.783-49.47-45.783h0    c-25.75,0-47.479,20.11-49.47,45.782l-5.064,65.291c-1.175,15.147,4.07,30.23,14.389,41.381    c8.606,9.299,20.215,15.275,32.645,17.008v55.208H7.5c-4.142,0-7.5,3.358-7.5,7.5S3.358,404.936,7.5,404.936z M368.382,307.531    c-7.599-8.211-11.308-18.877-10.443-30.033l5.064-65.291c1.389-17.911,16.549-31.942,34.515-31.942h0    c17.965,0,33.126,14.031,34.515,31.942l5.064,65.291c0.865,11.155-2.844,21.821-10.443,30.033    c-5.866,6.338-13.372,10.467-21.636,12.027v-4.686l20.303-20.303c2.929-2.929,2.929-7.678,0-10.606    c-2.929-2.929-7.678-2.929-10.606,0l-9.697,9.697v-17.787l20.303-20.303c2.929-2.929,2.929-7.678,0-10.606    c-2.929-2.929-7.678-2.929-10.606,0l-9.697,9.697v-3.223c0-4.142-3.358-7.5-7.5-7.5s-7.5,3.358-7.5,7.5v20.223l-9.697-9.697    c-2.929-2.929-7.678-2.929-10.606,0c-2.929,2.929-2.929,7.678,0,10.606l20.303,20.303v18.891c0,0.001,0,0.003,0,0.005v7.79    C381.754,317.999,374.248,313.87,368.382,307.531z M249.023,287.93c-5.945,5.093-13.591,8-21.784,8c-8.194,0-15.84-2.907-21.785-8    H249.023z M27.824,307.531c-7.599-8.211-11.308-18.877-10.443-30.033l5.064-65.291c1.389-17.911,16.55-31.942,34.515-31.942    s33.126,14.031,34.515,31.942l5.064,65.291c0.865,11.155-2.844,21.821-10.443,30.033c-5.866,6.339-13.373,10.467-21.636,12.027    v-7.79c0-0.001,0-0.003,0-0.005v-18.891l20.303-20.303c2.929-2.929,2.929-7.678,0-10.606c-2.929-2.929-7.678-2.929-10.606,0    l-9.697,9.697v-20.223c0-4.142-3.358-7.5-7.5-7.5s-7.5,3.358-7.5,7.5v3.223l-9.697-9.697c-2.929-2.929-7.678-2.929-10.606,0    c-2.929,2.929-2.929,7.678,0,10.606l20.303,20.303v17.787l-9.697-9.697c-2.929-2.929-7.678-2.929-10.606,0    c-2.929,2.929-2.929,7.678,0,10.606l20.303,20.303v4.686C41.196,317.998,33.69,313.87,27.824,307.531z M181.489,334.93h91.5    c-10.95,13.806-27.579,22-45.75,22C209.067,356.93,192.438,348.737,181.489,334.93z M145.14,371.93h164.198l-2.189,18.005H147.33    L145.14,371.93z"/>
		<path style="fill:#333333;" d="M446.978,418.434H7.5c-4.142,0-7.5,3.358-7.5,7.5s3.358,7.5,7.5,7.5h439.478    c4.142,0,7.5-3.358,7.5-7.5S451.12,418.434,446.978,418.434z"/>
		<path style="fill:#333333;" d="M141.739,261.696v25c0,4.142,3.358,7.5,7.5,7.5s7.5-3.358,7.5-7.5v-25    c0-17.369,14.131-31.5,31.5-31.5s31.5,14.131,31.5,31.5c0,4.142,3.358,7.5,7.5,7.5s7.5-3.358,7.5-7.5    c0-17.369,14.131-31.5,31.5-31.5s31.5,14.131,31.5,31.5v25c0,4.142,3.358,7.5,7.5,7.5s7.5-3.358,7.5-7.5v-25    c0-25.64-20.86-46.5-46.5-46.5c-16.317,0-30.699,8.448-39,21.201c-8.301-12.753-22.683-21.201-39-21.201    C162.599,215.196,141.739,236.056,141.739,261.696z"/>
		<path style="fill:#333333;" d="M288.234,126.662h24.386c-0.26,1.246-0.397,2.538-0.397,3.86c0,10.399,8.46,18.859,18.86,18.859    h39.163c10.399,0,18.859-8.46,18.859-18.859c0-9.725-7.398-17.754-16.862-18.755c0.275-1.279,0.419-2.605,0.419-3.965    c0-10.399-8.46-18.859-18.86-18.859h-65.568c-10.399,0-18.86,8.46-18.86,18.859C269.374,118.202,277.834,126.662,288.234,126.662z     M288.234,103.943h65.568c2.128,0,3.86,1.731,3.86,3.859c0,2.128-1.731,3.86-3.86,3.86c-4.142,0-7.5,3.358-7.5,7.5    s3.358,7.5,7.5,7.5h16.443c2.128,0,3.859,1.731,3.859,3.86c0,2.128-1.731,3.859-3.859,3.859h-39.163    c-2.128,0-3.86-1.731-3.86-3.859c0-2.128,1.731-3.86,3.86-3.86c4.142,0,7.5-3.358,7.5-7.5s-3.358-7.5-7.5-7.5h-42.849    c-2.128,0-3.86-1.731-3.86-3.86C284.374,105.675,286.105,103.943,288.234,103.943z"/>
		<path style="fill:#333333;" d="M139.497,136.539c31.842,0,57.748-25.905,57.748-57.748s-25.905-57.748-57.748-57.748    S81.749,46.949,81.749,78.791S107.654,136.539,139.497,136.539z M139.497,36.044c23.571,0,42.748,19.176,42.748,42.748    s-19.176,42.748-42.748,42.748s-42.748-19.176-42.748-42.748S115.925,36.044,139.497,36.044z"/>
	</g>
</g>















</svg>
