<?xml version="1.0" encoding="iso-8859-1"?>
<!-- Generator: Adobe Illustrator 19.0.0, SVG Export Plug-In . SVG Version: 6.00 Build 0)  -->
<svg version="1.1" id="Layer_1" xmlns="http://www.w3.org/2000/svg" xmlns:xlink="http://www.w3.org/1999/xlink" x="0px" y="0px"
	 viewBox="0 0 511.999 511.999" style="enable-background:new 0 0 511.999 511.999;" xml:space="preserve">
<g>
	<g>
		<g>
			<path d="M124.759,141.457c4.641,0,8.401-3.76,8.401-8.401v-24.909c0-4.641-3.76-8.401-8.401-8.401s-8.401,3.76-8.401,8.401
				v24.909C116.358,137.697,120.118,141.457,124.759,141.457z"/>
			<path d="M124.759,82.42c4.641,0,8.401-3.76,8.401-8.401c0-31.549,25.666-57.217,57.215-57.217
				c31.55,0,57.219,25.667,57.219,57.217c0,4.641,3.76,8.401,8.401,8.401c4.641,0,8.401-3.76,8.401-8.401
				c0-31.549,25.668-57.217,57.219-57.217c31.549,0,57.215,25.667,57.215,57.217c0,4.641,3.76,8.401,8.401,8.401
				c4.64,0,8.401-3.76,8.401-8.401C395.633,33.205,362.43,0,321.616,0c-28.487,0-53.249,16.183-65.62,39.831
				C243.624,16.183,218.862,0,190.375,0c-40.813,0-74.018,33.205-74.018,74.019C116.358,78.66,120.118,82.42,124.759,82.42z"/>
			<path d="M380.37,121.568c-4.641,0-8.401,3.76-8.401,8.401v8.735c0,4.641,3.76,8.401,8.401,8.401c4.641,0,8.401-3.76,8.401-8.401
				v-8.735C388.771,125.329,385.011,121.568,380.37,121.568z"/>
			<circle cx="380.37" cy="412.657" r="9.214"/>
			<circle cx="131.628" cy="412.657" r="9.214"/>
			<path d="M490.977,461.206h-24.515v-105.06h3.171c11.513,0,20.88-9.367,20.88-20.881v-9.425c0-11.513-9.366-20.88-20.88-20.88
				h-98.639c13.421-6.852,25.481-14.926,35.797-24.034c4.444-3.923,8.523-8.033,12.272-12.288h13.246
				c4.641,0,8.401-3.76,8.401-8.401s-3.76-8.401-8.401-8.401h-0.779c6.024-9.799,10.376-20.171,12.936-30.909
				c10.505-1.081,18.726-9.983,18.726-20.769v-9.592c0-11.513-9.366-20.881-20.88-20.881H303.992
				c3.922-7.606,6.056-16.108,6.056-24.781c0-29.804-24.247-54.053-54.052-54.053c-29.804,0-54.052,24.248-54.052,54.053
				c0,8.674,2.134,17.177,6.054,24.781H69.685c-11.513,0-20.88,9.367-20.88,20.881v9.592c0,10.787,8.221,19.688,18.727,20.769
				c2.56,10.738,6.911,21.109,12.936,30.909h-0.783c-4.641,0-8.401,3.76-8.401,8.401s3.762,8.401,8.401,8.401h13.249
				c3.745,4.251,7.821,8.356,12.259,12.276c10.318,9.114,22.382,17.191,35.81,24.046H42.364c-11.513,0-20.88,9.366-20.88,20.88
				v9.425c0,11.513,9.366,20.881,20.88,20.881h3.17v105.06H21.02c-10.88,0-19.73,8.85-19.73,19.73v11.332
				c0,10.88,8.85,19.73,19.73,19.73h469.957c10.881,0,19.733-8.85,19.733-19.73v-11.332
				C510.71,470.058,501.858,461.206,490.977,461.206z M255.996,107.655c20.539,0,37.25,16.711,37.25,37.251
				c0,9.277-3.338,17.958-9.45,24.781h-55.602c-6.109-6.823-9.447-15.505-9.447-24.781
				C218.746,124.366,235.456,107.655,255.996,107.655z M69.685,204.239c-2.21,0-4.077-1.867-4.077-4.078v-9.592
				c0-2.211,1.867-4.078,4.077-4.078h372.628c2.21,0,4.077,1.867,4.077,4.078v9.592c0,2.211-1.867,4.078-4.077,4.078H69.685z
				 M100.833,251.837c-7.401-9.632-12.749-20.003-15.896-30.797h342.127c-3.149,10.794-8.496,21.165-15.897,30.797H100.833z
				 M116.689,268.64h278.619c-18.296,16.038-42.806,28.579-70.971,36.322H187.658C159.494,297.217,134.985,284.679,116.689,268.64z
				 M42.364,339.344c-2.21,0-4.077-1.867-4.077-4.078v-9.425c0-2.21,1.867-4.077,4.077-4.077h427.269
				c2.21,0,4.077,1.867,4.077,4.077v9.425c0,2.211-1.867,4.078-4.077,4.078H42.364z M449.66,356.147v105.06H62.337v-105.06H449.66z
				 M493.907,492.27c0,1.587-1.342,2.928-2.93,2.928H21.02c-1.587,0-2.928-1.341-2.928-2.928v-11.332
				c0-1.587,1.341-2.928,2.928-2.928h469.957c1.588,0,2.93,1.341,2.93,2.928V492.27z"/>
			<path d="M131.628,450.176c20.687,0,37.517-16.83,37.517-37.517c0-20.688-16.83-37.519-37.517-37.519
				c-20.688,0-37.519,16.83-37.519,37.519C94.109,433.345,110.939,450.176,131.628,450.176z M131.628,391.941
				c11.422,0,20.715,9.294,20.715,20.716s-9.293,20.715-20.715,20.715c-11.422,0-20.716-9.293-20.716-20.715
				S120.205,391.941,131.628,391.941z"/>
			<path d="M380.37,450.176c20.687,0,37.518-16.83,37.518-37.517c0-20.688-16.83-37.519-37.518-37.519
				c-20.687,0-37.517,16.83-37.517,37.519C342.853,433.345,359.684,450.176,380.37,450.176z M380.37,391.941
				c11.422,0,20.715,9.294,20.715,20.716s-9.293,20.715-20.715,20.715c-11.422,0-20.715-9.293-20.715-20.715
				S368.948,391.941,380.37,391.941z"/>
			<circle cx="255.999" cy="412.658" r="8.146"/>
			<path d="M255.999,450.176c20.687,0,37.518-16.83,37.518-37.517c0-20.688-16.83-37.519-37.518-37.519
				c-20.687,0-37.517,16.83-37.517,37.519C218.481,433.345,235.312,450.176,255.999,450.176z M255.999,391.941
				c11.422,0,20.715,9.294,20.715,20.716s-9.293,20.715-20.715,20.715c-11.422,0-20.715-9.293-20.715-20.715
				S244.577,391.941,255.999,391.941z"/>
		</g>
	</g>
</g>
<g>
</g>
<g>
</g>
<g>
</g>
<g>
</g>
<g>
</g>
<g>
</g>
<g>
</g>
<g>
</g>
<g>
</g>
<g>
</g>
<g>
</g>
<g>
</g>
<g>
</g>
<g>
</g>
<g>
</g>
</svg>
