<?xml version="1.0" encoding="utf-8"?>
<!-- Generator: Adobe Illustrator 24.1.2, SVG Export Plug-In . SVG Version: 6.00 Build 0)  -->
<svg version="1.1" id="Слой_1" xmlns="http://www.w3.org/2000/svg" xmlns:xlink="http://www.w3.org/1999/xlink" x="0px" y="0px"
	 viewBox="0 0 800 800" style="enable-background:new 0 0 800 800;" xml:space="preserve">
<style type="text/css">
	.st0{fill:#FF7B47;}
</style>
<path class="st0" d="M400,32c-71.1,0-115.8,28.6-144.8,69.1c-29,40.6-41.1,94.2-41.1,141.8v235.9h371.9V243
	c0-47.7-12.2-101.3-41.1-141.8C515.8,60.6,471.1,32,400,32z M413.7,50.6c2,0,4,0,6,0.1C335.5,76.9,265.1,150.4,228,250.5
	c1.7-44.8,14.1-93.4,40.9-130.8C297.8,79.2,342.6,50.6,413.7,50.6L413.7,50.6z M164.1,507v71.9h471.9V507H164.1z M285.9,607V668H275
	v50h10.9v50h28.1v-50H325v-50h-10.9V607H285.9z M485.9,607V668H475v50h10.9v50h28.1v-50H525v-50h-10.9V607H485.9z"/>
</svg>
