<?xml version="1.0" encoding="iso-8859-1"?>
<!-- Generator: Adobe Illustrator 19.1.0, SVG Export Plug-In . SVG Version: 6.00 Build 0)  -->
<svg version="1.1" id="Capa_1" xmlns="http://www.w3.org/2000/svg" xmlns:xlink="http://www.w3.org/1999/xlink" x="0px" y="0px"
	 viewBox="0 0 430.696 430.696" style="enable-background:new 0 0 430.696 430.696;" xml:space="preserve">
<g>
	<path style="fill:#999999;" d="M200.998,154.181v45.466h28.699v-45.466c-4.686,0.83-9.48,1.274-14.348,1.274
		C210.48,155.455,205.684,155.011,200.998,154.181z"/>
	<path style="fill:#FFCC66;" d="M284.355,85.895H146.338c-5.466,0-10.162,3.359-12.131,8.121h162.282
		C294.519,89.254,289.822,85.895,284.355,85.895z"/>
	<path style="fill:#CCCCCC;" d="M280.92,104.016H149.775c11.912,25.055,37.422,41.439,65.574,41.439
		C243.499,145.455,269.009,129.071,280.92,104.016z"/>
	<path style="fill:#CCCCCC;" d="M156.67,420.696h117.357c-1.031-2.115-2.181-4.159-3.425-6.137H160.094
		C158.85,416.537,157.701,418.58,156.67,420.696z"/>
	<path style="fill:#FFCC66;" d="M338.287,209.647H92.409c-9.14,0-16.848,6.255-19.066,14.709h284.011
		C355.135,215.902,347.428,209.647,338.287,209.647z"/>
	<path style="fill:#CCCCCC;" d="M184.834,391.637c-6.41,3.392-12.125,7.768-16.992,12.922h95.013
		c-4.868-5.153-10.583-9.529-16.994-12.922H184.834z"/>
	<path style="fill:#999999;" d="M215.35,318.705c-9.102,0-18.045-0.961-26.731-2.764v65.696h53.457v-65.695
		C233.392,317.744,224.449,318.705,215.35,318.705z"/>
	<path style="fill:#CCCCCC;" d="M215.35,308.705c49.092,0,93.415-29.594,112.468-74.349H102.878
		C121.933,279.111,166.257,308.705,215.35,308.705z"/>
	<path style="fill:#663333;" d="M108.936,47.093c0.507,0.162,1.02,0.239,1.525,0.239c2.116,0,4.082-1.354,4.761-3.478
		c1.289-4.025,3.105-7.876,5.399-11.444c1.494-2.322,0.821-5.416-1.501-6.91c-2.325-1.495-5.417-0.822-6.91,1.502
		c-2.767,4.303-4.957,8.947-6.512,13.806C104.856,43.438,106.306,46.252,108.936,47.093z"/>
	<path style="fill:#663333;" d="M125.423,24.041c1.204,0,2.411-0.432,3.37-1.308c3.134-2.86,6.624-5.302,10.375-7.255
		c2.449-1.275,3.4-4.295,2.125-6.744c-1.275-2.447-4.294-3.401-6.744-2.125c-4.52,2.354-8.725,5.294-12.498,8.739
		c-2.039,1.861-2.183,5.024-0.321,7.063C122.715,23.494,124.066,24.041,125.423,24.041z"/>
	<path style="fill:#663333;" d="M149.967,11.272c0.358,0,0.723-0.039,1.086-0.119c3.448-0.764,7.002-1.15,10.566-1.15
		c0.004,0,0.008,0,0.012,0c0.684,0,1.363,0.015,2.04,0.042c2.764,0.13,5.087-2.033,5.198-4.793c0.113-2.759-2.033-5.087-4.791-5.199
		c-0.816-0.033-1.603-0.06-2.461-0.05c-4.287,0-8.569,0.467-12.726,1.387c-2.696,0.597-4.397,3.267-3.802,5.963
		C145.607,9.684,147.674,11.272,149.967,11.272z"/>
	<path style="fill:#663333;" d="M176.139,12.198c4.037,1.258,7.9,3.045,11.486,5.312c0.828,0.524,1.753,0.774,2.666,0.774
		c1.658,0,3.28-0.824,4.231-2.329c1.476-2.334,0.78-5.423-1.554-6.899c-4.324-2.732-8.985-4.888-13.855-6.405
		c-2.637-0.822-5.439,0.649-6.262,3.286C172.03,8.574,173.502,11.376,176.139,12.198z"/>
	<path style="fill:#663333;" d="M204.697,35.923c0.898,1.693,2.631,2.658,4.422,2.658c0.79,0,1.592-0.188,2.338-0.584
		c2.439-1.294,3.369-4.32,2.074-6.76c-2.387-4.502-5.359-8.685-8.834-12.432c-1.878-2.024-5.042-2.144-7.066-0.267
		c-2.025,1.877-2.145,5.041-0.268,7.065C200.249,28.716,202.717,32.188,204.697,35.923z"/>
	<path style="fill:#663333;" d="M107.915,187.062c2.761,0,5-2.238,5-5v-14c0-2.762-2.239-5-5-5s-5,2.238-5,5v14
		C102.915,184.824,105.153,187.062,107.915,187.062z"/>
	<path style="fill:#663333;" d="M107.915,75.062c2.761,0,5-2.238,5-5V58.718c0-0.808,0.02-1.611,0.059-2.409
		c0.135-2.758-1.992-5.104-4.75-5.238c-2.767-0.137-5.103,1.992-5.238,4.75c-0.047,0.956-0.07,1.931-0.07,2.897v11.344
		C102.915,72.824,105.153,75.062,107.915,75.062z"/>
	<path style="fill:#663333;" d="M107.915,159.062c2.761,0,5-2.238,5-5v-14c0-2.762-2.239-5-5-5s-5,2.238-5,5v14
		C102.915,156.824,105.153,159.062,107.915,159.062z"/>
	<path style="fill:#663333;" d="M107.915,131.062c2.761,0,5-2.238,5-5v-14c0-2.762-2.239-5-5-5s-5,2.238-5,5v14
		C102.915,128.824,105.153,131.062,107.915,131.062z"/>
	<path style="fill:#663333;" d="M107.915,103.062c2.761,0,5-2.238,5-5v-14c0-2.762-2.239-5-5-5s-5,2.238-5,5v14
		C102.915,100.824,105.153,103.062,107.915,103.062z"/>
	<path style="fill:#663333;" d="M219.237,37.998c0.747,0.396,1.549,0.584,2.34,0.584c1.791,0,3.523-0.965,4.421-2.657
		c1.981-3.736,4.449-7.208,7.334-10.319c1.878-2.024,1.759-5.188-0.267-7.065c-2.023-1.878-5.186-1.759-7.066,0.267
		c-3.475,3.747-6.447,7.93-8.836,12.431C215.87,33.677,216.799,36.705,219.237,37.998z"/>
	<path style="fill:#663333;" d="M327.781,140.062c0-2.762-2.238-5-5-5c-2.762,0-5,2.238-5,5v14c0,2.762,2.238,5,5,5
		c2.762,0,5-2.238,5-5V140.062z"/>
	<path style="fill:#663333;" d="M322.781,163.062c-2.762,0-5,2.238-5,5v14c0,2.762,2.238,5,5,5c2.762,0,5-2.238,5-5v-14
		C327.781,165.3,325.543,163.062,322.781,163.062z"/>
	<path style="fill:#663333;" d="M327.781,112.062c0-2.762-2.238-5-5-5c-2.762,0-5,2.238-5,5v14c0,2.762,2.238,5,5,5
		c2.762,0,5-2.238,5-5V112.062z"/>
	<path style="fill:#663333;" d="M317.724,56.303c0.038,0.8,0.058,1.605,0.058,2.415v11.344c0,2.762,2.238,5,5,5c2.762,0,5-2.238,5-5
		V58.718c0-0.958-0.023-1.932-0.069-2.892c-0.132-2.759-2.467-4.891-5.233-4.756C319.721,51.203,317.592,53.545,317.724,56.303z"/>
	<path style="fill:#663333;" d="M327.781,84.062c0-2.762-2.238-5-5-5c-2.762,0-5,2.238-5,5v14c0,2.762,2.238,5,5,5
		c2.762,0,5-2.238,5-5V84.062z"/>
	<path style="fill:#663333;" d="M240.403,18.284c0.913,0,1.838-0.25,2.667-0.774c3.586-2.267,7.451-4.054,11.486-5.312
		c2.637-0.821,4.107-3.624,3.286-6.261c-0.821-2.638-3.629-4.108-6.261-3.286c-4.869,1.517-9.53,3.672-13.855,6.405
		c-2.335,1.476-3.031,4.564-1.556,6.898C237.123,17.459,238.745,18.284,240.403,18.284z"/>
	<path style="fill:#663333;" d="M310.073,32.411c2.295,3.569,4.112,7.42,5.4,11.444c0.679,2.124,2.645,3.478,4.761,3.478
		c0.505,0,1.019-0.077,1.524-0.239c2.631-0.841,4.08-3.655,3.238-6.285c-1.554-4.857-3.745-9.502-6.512-13.806
		c-1.495-2.324-4.587-2.994-6.91-1.502C309.252,26.995,308.58,30.088,310.073,32.411z"/>
	<path style="fill:#663333;" d="M209.115,47.777c0.818,3.565,1.233,7.246,1.232,10.941v1.833c0,2.762,2.239,5,5,5
		c2.762,0,5.001-2.238,5.001-5v-1.832c0-0.006-0.001-0.012-0.001-0.018c0.003-3.69,0.417-7.366,1.233-10.925
		c0.618-2.691-1.063-5.374-3.755-5.991c-0.849-0.196-1.691-0.14-2.475,0.083c-0.785-0.225-1.629-0.28-2.48-0.083
		C210.18,42.403,208.498,45.085,209.115,47.777z"/>
	<path style="fill:#663333;" d="M267.024,10.044c0.677-0.027,1.357-0.042,2.041-0.042c0.004,0,0.009,0,0.013,0
		c3.562,0,7.117,0.387,10.564,1.15c0.364,0.08,0.728,0.119,1.086,0.119c2.294,0,4.36-1.588,4.877-3.92
		c0.597-2.696-1.104-5.366-3.801-5.963c-4.157-0.92-8.438-1.387-12.726-1.387c-0.005,0-0.01,0-0.015,0
		c-0.819,0-1.635,0.017-2.446,0.05c-2.759,0.112-4.905,2.441-4.793,5.199C261.937,8.012,264.299,10.168,267.024,10.044z"/>
	<path style="fill:#663333;" d="M291.528,15.478c3.751,1.953,7.241,4.394,10.375,7.255c0.959,0.876,2.166,1.308,3.37,1.308
		c1.355,0,2.707-0.549,3.693-1.629c1.862-2.039,1.718-5.202-0.321-7.063c-3.773-3.445-7.979-6.386-12.498-8.739
		c-2.451-1.278-5.47-0.324-6.744,2.125C288.128,11.183,289.079,14.203,291.528,15.478z"/>
	<path style="fill:#663333;" d="M338.287,199.647h-98.59v-47.879c23.293-7.221,42.698-24.565,52.142-47.752h10.64
		c2.762,0,5-2.238,5-5c0-12.749-10.373-23.121-23.123-23.121h-64.007v-1.344c0-2.762-2.239-5-5.001-5c-2.761,0-5,2.238-5,5v1.344
		h-64.01c-12.749,0-23.121,10.372-23.121,23.121c0,2.762,2.239,5,5,5h10.641c9.441,23.185,28.848,40.53,52.141,47.751v47.88H92.409
		c-16.381,0-29.709,13.327-29.709,29.709c0,2.762,2.239,5,5,5h24.408c15.097,38.865,47.559,67.773,86.512,79.097v70.194
		c-15.934,8.905-28.014,23.127-34.18,40.364c-0.548,1.532-0.316,3.234,0.62,4.563c0.937,1.33,2.462,2.121,4.088,2.121h132.401
		c1.626,0,3.151-0.791,4.088-2.121c0.936-1.329,1.168-3.031,0.62-4.562c-6.166-17.238-18.246-31.461-34.181-40.365v-70.193
		c38.953-11.322,71.417-40.232,86.512-79.098h24.408c2.762,0,5-2.238,5-5C367.996,212.974,354.669,199.647,338.287,199.647z
		 M134.207,94.016c1.97-4.762,6.666-8.121,12.131-8.121h138.018c5.467,0,10.163,3.359,12.133,8.121H134.207z M149.775,104.016
		H280.92c-11.911,25.055-37.421,41.439-65.57,41.439C187.197,145.455,161.687,129.071,149.775,104.016z M229.697,154.181v45.466
		h-28.699v-45.466c4.686,0.83,9.482,1.274,14.352,1.274C220.217,155.455,225.012,155.011,229.697,154.181z M270.603,414.559
		c1.244,1.978,2.393,4.021,3.425,6.137H156.67c1.031-2.115,2.18-4.159,3.424-6.137H270.603z M262.854,404.559h-95.013
		c4.867-5.154,10.582-9.53,16.992-12.922h61.026C252.271,395.03,257.986,399.406,262.854,404.559z M188.619,381.637v-65.696
		c8.686,1.803,17.629,2.764,26.731,2.764c9.1,0,18.042-0.961,26.726-2.763v65.695H188.619z M215.35,308.705
		c-49.093,0-93.417-29.594-112.471-74.349h224.939C308.765,279.111,264.441,308.705,215.35,308.705z M73.342,224.356
		c2.219-8.454,9.926-14.709,19.066-14.709h245.879c9.141,0,16.848,6.255,19.066,14.709H73.342z"/>
</g>
<g>
</g>
<g>
</g>
<g>
</g>
<g>
</g>
<g>
</g>
<g>
</g>
<g>
</g>
<g>
</g>
<g>
</g>
<g>
</g>
<g>
</g>
<g>
</g>
<g>
</g>
<g>
</g>
<g>
</g>
</svg>
