<?xml version="1.0" encoding="iso-8859-1"?>
<!-- Generator: Adobe Illustrator 17.1.0, SVG Export Plug-In . SVG Version: 6.00 Build 0)  -->
<!DOCTYPE svg PUBLIC "-//W3C//DTD SVG 1.1//EN" "http://www.w3.org/Graphics/SVG/1.1/DTD/svg11.dtd">
<svg version="1.1" id="Capa_1" xmlns="http://www.w3.org/2000/svg" xmlns:xlink="http://www.w3.org/1999/xlink" x="0px" y="0px"
	 viewBox="0 0 511.971 511.971" style="enable-background:new 0 0 511.971 511.971;" xml:space="preserve">
<g>
	<path d="M439.986,239.971h-160V173.79c9.173-1.723,17.628-4.433,24.833-8.036c14.94-7.47,23.167-18.047,23.167-29.783
		c0-4.418-3.582-8-8-8h-56v-24h8c4.418,0,8-3.582,8-8s-3.582-8-8-8h-7.602c0.456-4.591,1.301-9.125,2.535-13.549
		c1.187-4.256-1.301-8.668-5.557-9.855c-1.857-0.518-3.743-0.336-5.378,0.386c-1.635-0.722-3.52-0.904-5.376-0.386
		c-4.256,1.187-6.744,5.599-5.557,9.855c1.234,4.424,2.079,8.958,2.535,13.549h-7.602c-4.418,0-8,3.582-8,8s3.582,8,8,8h8v24h-56
		c-4.418,0-8,3.582-8,8c0,11.736,8.228,22.313,23.167,29.783c7.205,3.603,15.66,6.313,24.833,8.036v66.182h-160
		c-4.418,0-8,3.582-8,8c0,21.054,20.907,41.177,58.871,56.662c30.822,12.572,68.892,20.421,109.129,22.666v16.672h-24
		c-4.418,0-8,3.582-8,8s3.582,8,8,8c8.822,0,16,7.178,16,16v88h-28c-6.617,0-12,5.383-12,12v28c0,4.418,3.582,8,8,8h128
		c4.418,0,8-3.582,8-8v-28c0-6.617-5.383-12-12-12h-28v-88c0-8.822,7.178-16,16-16c4.418,0,8-3.582,8-8s-3.582-8-8-8h-24V327.3
		c40.237-2.245,78.307-10.094,109.129-22.666c37.963-15.485,58.871-35.608,58.871-56.662
		C447.986,243.553,444.404,239.971,439.986,239.971z M203.723,143.971h104.526c-7.924,8.568-27.718,16-52.263,16
		S211.647,152.54,203.723,143.971z M247.986,175.729c2.64,0.155,5.308,0.243,8,0.243s5.36-0.088,8-0.243v64.243h-16V175.729z
		 M311.986,495.971h-112v-16h32h48h32V495.971z M271.986,375.971v88h-32v-88c0-5.827-1.573-11.289-4.305-16h40.61
		C273.559,364.682,271.986,370.145,271.986,375.971z M263.986,343.971h-16v-16.078c2.661,0.049,5.327,0.078,8,0.078
		s5.339-0.029,8-0.078V343.971z M383.072,289.819c-35.022,14.285-80.156,22.152-127.086,22.152s-92.064-7.867-127.086-22.152
		c-24.389-9.948-41.31-22.332-46.9-33.848h347.973C424.382,267.487,407.461,279.871,383.072,289.819z"/>
	<path d="M117.557,31.85c1.585,0,3.187-0.47,4.583-1.448c5.976-4.187,12.481-7.53,19.338-9.937
		c4.169-1.464,6.362-6.029,4.898-10.198s-6.029-6.363-10.198-4.898c-8.235,2.891-16.047,6.904-23.219,11.929
		c-3.619,2.536-4.497,7.524-1.961,11.143C112.554,30.662,115.036,31.85,117.557,31.85z"/>
	<path d="M217.161,32.865c5.745,4.483,10.854,9.727,15.187,15.583c1.569,2.121,3.987,3.243,6.438,3.243
		c1.653,0,3.32-0.511,4.751-1.569c3.552-2.627,4.302-7.637,1.674-11.189c-5.194-7.021-11.319-13.306-18.205-18.681
		c-3.483-2.719-8.511-2.099-11.229,1.384S213.678,30.146,217.161,32.865z"/>
	<path d="M82.006,75.494c0.845,0.284,1.705,0.419,2.55,0.419c3.342,0,6.458-2.111,7.582-5.453
		c2.314-6.884,5.569-13.432,9.674-19.459c2.487-3.652,1.542-8.628-2.109-11.115c-3.652-2.488-8.629-1.543-11.116,2.109
		c-4.928,7.236-8.836,15.098-11.616,23.368C75.564,69.551,77.818,74.087,82.006,75.494z"/>
	<path d="M170.066,15.998c7.31,0.187,14.529,1.36,21.459,3.491c0.783,0.241,1.575,0.355,2.353,0.355c3.42,0,6.587-2.211,7.645-5.651
		c1.298-4.224-1.073-8.699-5.296-9.998c-8.322-2.558-16.987-3.968-25.753-4.191c-4.4-0.115-8.088,3.376-8.201,7.793
		C162.16,12.214,165.649,15.885,170.066,15.998z"/>
	<path d="M79.986,223.971c4.418,0,8-3.582,8-8v-4.565c0-4.418-3.582-8-8-8s-8,3.582-8,8v4.565
		C71.986,220.389,75.567,223.971,79.986,223.971z"/>
	<path d="M79.986,187.406c4.418,0,8-3.582,8-8v-24c0-4.418-3.582-8-8-8s-8,3.582-8,8v24
		C71.986,183.825,75.567,187.406,79.986,187.406z"/>
	<path d="M79.986,131.406c4.418,0,8-3.582,8-8v-24c0-4.418-3.582-8-8-8s-8,3.582-8,8v24
		C71.986,127.825,75.567,131.406,79.986,131.406z"/>
	<path d="M439.986,155.406c0-4.418-3.582-8-8-8s-8,3.582-8,8v24c0,4.418,3.582,8,8,8s8-3.582,8-8V155.406z"/>
	<path d="M431.986,203.406c-4.418,0-8,3.582-8,8v4.565c0,4.418,3.582,8,8,8s8-3.582,8-8v-4.565
		C439.986,206.988,436.404,203.406,431.986,203.406z"/>
	<path d="M423.986,99.406v24c0,4.418,3.582,8,8,8s8-3.582,8-8v-24c0-4.418-3.582-8-8-8S423.986,94.988,423.986,99.406z"/>
	<path d="M419.834,70.46c1.124,3.343,4.24,5.453,7.582,5.453c0.845,0,1.705-0.135,2.55-0.419c4.188-1.407,6.442-5.943,5.034-10.132
		c-2.78-8.27-6.688-16.132-11.616-23.368c-2.487-3.652-7.463-4.596-11.116-2.109c-3.651,2.487-4.596,7.463-2.109,11.115
		C414.265,57.029,417.52,63.576,419.834,70.46z"/>
	<path d="M268.435,50.122c1.431,1.059,3.098,1.569,4.751,1.569c2.45,0,4.869-1.122,6.438-3.243
		c4.332-5.856,9.442-11.1,15.187-15.583c3.483-2.719,4.103-7.746,1.384-11.229c-2.719-3.483-7.746-4.103-11.229-1.384
		c-6.886,5.375-13.011,11.66-18.205,18.681C264.133,42.485,264.883,47.495,268.435,50.122z"/>
	<path d="M370.494,20.466c6.856,2.407,13.362,5.75,19.338,9.937c1.397,0.979,2.998,1.448,4.583,1.448
		c2.521,0,5.002-1.188,6.559-3.41c2.535-3.618,1.657-8.607-1.961-11.143c-7.172-5.024-14.984-9.038-23.219-11.929
		c-4.169-1.464-8.734,0.729-10.198,4.898C364.132,14.436,366.325,19.002,370.494,20.466z"/>
	<path d="M318.094,19.844c0.778,0,1.57-0.114,2.353-0.355c6.93-2.13,14.149-3.304,21.459-3.491c4.417-0.112,7.906-3.784,7.794-8.201
		c-0.112-4.417-3.776-7.917-8.201-7.793c-8.766,0.223-17.431,1.633-25.753,4.191c-4.223,1.298-6.594,5.774-5.296,9.998
		C311.507,17.633,314.673,19.844,318.094,19.844z"/>
</g>
<g>
</g>
<g>
</g>
<g>
</g>
<g>
</g>
<g>
</g>
<g>
</g>
<g>
</g>
<g>
</g>
<g>
</g>
<g>
</g>
<g>
</g>
<g>
</g>
<g>
</g>
<g>
</g>
<g>
</g>
</svg>
